<?xml version="1.0" encoding="utf-8"?>
<!DOCTYPE svg PUBLIC "-//W3C//DTD SVG 1.0//EN" "http://www.w3.org/TR/2001/REC-SVG-20010904/DTD/svg10.dtd">
<svg version="1.0" xmlns="http://www.w3.org/2000/svg" width="763px" height="763px" viewBox="0 0 763 763" preserveAspectRatio="xMidYMid meet">
 <g fill="#d8191b">
  <path d="M370.70 762.11 c-59.39 -5.81 -113.48 -17.58 -152.75 -33.23 -31 -12.29 -53.35 -24.81 -74.06 -41.43 -5.44 -4.40 -13.19 -10.43 -17.14 -13.41 -10.21 -7.75 -14.46 -11.85 -27.35 -26.15 -6.26 -6.93 -14.75 -16.24 -18.78 -20.64 -8.49 -9.09 -19.67 -23.77 -28.46 -37.18 -6.48 -9.91 -13.11 -22.80 -17.51 -34.20 -1.49 -3.87 -4.77 -11.70 -7.15 -17.44 -14.16 -32.93 -22.35 -69.37 -24.44 -108.12 -2.46 -44.56 8.49 -101.26 30.10 -155.73 9.39 -23.77 14.31 -32.86 41.28 -75.93 13.78 -21.98 18.63 -28.69 31.07 -42.92 13.78 -15.72 45.38 -46.50 61.32 -59.76 15.35 -12.82 52.68 -35.84 80.47 -49.77 20.94 -10.43 50.37 -21.98 75.03 -29.36 8.57 -2.53 11.10 -3.13 26.38 -6.41 19.37 -4.17 39.94 -5.96 69.30 -5.96 25.93 0 39.79 2.01 60.73 8.72 14.31 4.62 27.42 13.78 30.62 21.53 2.46 5.81 0.37 12.07 -4.69 14.23 -3.65 1.49 -6.93 0.52 -12 -3.50 -8.12 -6.48 -21.61 -10.95 -39.27 -13.04 -11.33 -1.34 -40.53 -1.49 -52.90 -0.37 -15.95 1.49 -43.29 6.56 -51.41 9.46 -1.64 0.60 -5.51 1.79 -8.57 2.53 -2.98 0.82 -6.86 2.16 -8.57 2.91 -1.64 0.75 -4.84 1.71 -7.08 2.09 -5.51 1.04 -22.95 6.86 -29.43 9.84 -2.83 1.34 -7.38 3.28 -10.06 4.32 -2.68 1.04 -6.18 2.61 -7.82 3.50 -1.64 0.89 -4.99 2.76 -7.45 4.10 -2.46 1.34 -7.15 3.80 -10.43 5.59 -3.28 1.71 -8.94 4.77 -12.67 6.71 -3.65 1.94 -8.05 4.55 -9.69 5.74 -1.64 1.12 -6.63 4.55 -11.18 7.53 -4.47 2.98 -10.51 7.23 -13.41 9.46 -33.08 25.48 -40.46 31.74 -51.93 44.11 -4.62 4.99 -11.47 12.29 -15.20 16.24 -14.60 15.35 -45.08 56.41 -54.10 72.72 -5.44 9.91 -17.29 35.84 -21.76 47.46 -7.53 19.45 -20.57 68.48 -23.10 86.28 -2.98 21.46 -3.35 51.34 -0.82 70.19 1.79 13.71 8.27 45.68 11.62 57.22 7.82 27.20 23.25 58.27 40.16 80.77 11.92 15.80 20.34 25.11 38.82 42.84 28.99 27.87 42.84 38.67 65.20 50.52 23.17 12.29 32.56 16.09 58.79 24.07 18.85 5.66 33.75 9.09 54.77 12.59 35.54 5.81 52.53 7.08 90.53 6.48 41.50 -0.60 65.79 -4.17 100.59 -14.75 23.62 -7.23 38.30 -13.11 65.35 -26.23 29.21 -14.31 36.21 -18.78 62.07 -40.46 18.48 -15.35 25.93 -23.47 37.11 -40.53 16.09 -24.51 27.20 -46.94 34.42 -69.44 5.81 -18.18 7.15 -24.96 11.92 -61.92 3.35 -26.38 2.31 -55.73 -3.43 -92.47 -2.91 -18.55 -3.50 -21.09 -9.76 -39.94 -7.30 -22.06 -10.88 -31.22 -17.51 -44.26 -8.79 -17.58 -9.02 -17.88 -28.17 -47.02 -7.90 -11.85 -17.06 -26.15 -20.49 -31.67 -9.31 -15.20 -13.41 -21.31 -24.74 -37.48 -5.74 -8.20 -10.66 -15.65 -11.10 -16.69 -3.28 -8.72 6.71 -17.06 14.68 -12.22 1.27 0.75 4.10 3.43 6.33 5.96 2.16 2.46 14.01 14.16 26.23 25.93 34.65 33.31 57.37 59.31 71.68 81.81 14.46 22.88 31.22 68.18 37.55 101.71 4.40 23.17 4.55 25.86 4.55 73.02 0 24.22 -0.30 43.96 -0.60 43.96 -0.37 0 -1.27 4.10 -1.94 9.16 -4.77 33.98 -13.49 63.19 -27.79 93.66 -8.49 17.96 -23.40 42.47 -33.83 55.59 -6.18 7.75 -23.02 24.89 -32.34 33.01 -23.62 20.42 -57.60 41.95 -86.81 54.92 -43.74 19.37 -73.47 28.76 -111.77 35.32 -16.62 2.83 -38.22 5.22 -47.31 5.22 -3.43 0 -6.48 0.37 -6.71 0.75 -0.60 0.89 -33.60 0.82 -43.22 -0.15z"/>
  <path d="M267.87 628.06 c-4.55 -4.02 -5.14 -8.27 -8.94 -62.89 -2.83 -40.91 -3.50 -49.10 -4.02 -49.77 -0.30 -0.30 -3.05 0 -6.11 0.60 -9.39 2.01 -12.74 2.53 -18.55 3.05 -4.84 0.45 -6.04 0.30 -8.72 -1.04 -7.60 -3.87 -9.24 -13.19 -3.50 -19.52 3.20 -3.50 7.97 -5.81 22.06 -10.58 l11.03 -3.73 0 -2.38 c0 -1.27 -0.67 -13.19 -1.42 -26.53 -3.87 -64.53 -4.47 -87.92 -2.76 -112.89 0.60 -9.84 1.49 -26.75 1.94 -37.63 0.89 -20.27 4.47 -68.92 6.33 -85.84 1.04 -9.46 1.04 -9.54 -0.67 -13.49 -7.60 -17.21 -6.04 -27.35 4.32 -27.35 2.98 0 3.50 -0.30 4.84 -2.46 1.86 -3.05 4.32 -4.25 8.87 -4.25 4.10 0 6.33 1.34 8.05 4.69 1.04 1.94 1.19 3.87 0.75 12.82 l-0.52 10.51 5.96 9.84 c3.35 5.44 7.90 13.56 10.13 18.03 5.66 11.25 11.40 20.71 27.05 44.71 17.96 27.42 29.51 44.33 38.82 56.93 4.32 5.81 11.25 15.80 15.42 22.20 4.25 6.41 11.33 16.69 15.80 22.80 4.47 6.18 10.66 15.35 13.71 20.42 5.96 9.76 23.10 38.67 27.87 47.02 l2.91 5.07 5.22 -0.52 c4.69 -0.37 5.51 -0.22 7.82 1.34 3.20 2.16 4.47 4.55 4.47 8.64 0 2.68 -0.45 3.50 -2.98 6.04 l-2.98 2.91 8.12 16.39 c4.47 8.94 9.76 19.97 11.62 24.44 6.56 15.13 11.03 24.44 21.68 45.08 12 23.17 12.97 25.71 11.25 29.88 -2.53 5.96 -10.73 7.67 -15.42 3.20 -1.19 -1.12 -8.72 -11.92 -16.84 -23.99 -8.05 -12.07 -18.48 -26.90 -23.17 -32.86 -11.10 -14.46 -21.68 -28.91 -29.28 -40.39 -3.35 -5.14 -6.41 -9.61 -6.78 -9.98 -0.30 -0.37 -2.16 -0.07 -4.17 0.60 -1.94 0.67 -7.23 2.24 -11.70 3.50 -4.40 1.19 -8.64 2.53 -9.31 2.83 -0.67 0.37 -5.36 1.94 -10.51 3.65 -5.14 1.64 -13.19 4.40 -17.88 5.96 -4.69 1.64 -9.76 3.20 -11.18 3.43 -1.42 0.22 -4.25 0.97 -6.33 1.49 -2.01 0.60 -12.59 2.98 -23.47 5.29 -10.88 2.31 -22.95 4.92 -26.82 5.81 l-7.08 1.64 -0.22 14.53 c-0.07 7.97 0.30 28.69 0.97 45.97 1.34 36.73 1.42 47.99 0.37 51.79 -0.45 1.49 -1.94 3.73 -3.43 4.99 -2.16 1.94 -3.20 2.31 -6.26 2.31 -3.05 0 -4.10 -0.37 -6.33 -2.31z m29.95 -156.70 c8.12 -1.86 19.97 -4.55 26.38 -5.96 13.86 -3.13 29.80 -5.96 42.02 -7.53 11.18 -1.42 28.09 -4.17 28.91 -4.62 0.75 -0.45 -0.52 -2.53 -11.77 -19.67 -5.29 -8.05 -11.77 -18.18 -14.38 -22.35 -2.61 -4.25 -8.79 -13.64 -13.78 -20.79 -9.98 -14.31 -15.20 -22.43 -26.23 -40.98 -4.10 -6.78 -10.43 -16.99 -14.16 -22.73 -11.18 -17.06 -15.35 -24.44 -24.89 -43.44 -4.99 -9.91 -9.31 -18.03 -9.69 -18.03 -1.79 0 -1.19 143.66 0.67 158.71 0.45 3.50 0.97 16.32 1.27 28.54 0.22 12.15 0.52 22.13 0.67 22.13 0.07 0 6.86 -1.49 14.98 -3.28z"/>
  <path d="M600.04 498.41 c-3.73 -1.12 -5.96 -4.40 -7.23 -10.88 -2.16 -10.43 -11.92 -49.48 -12.74 -50.67 -0.07 -0.15 -5.14 0.97 -11.25 2.38 -26.45 6.18 -47.61 8.35 -53.05 5.36 -4.77 -2.61 -6.71 -8.49 -4.32 -13.11 1.71 -3.20 6.26 -6.78 12.07 -9.54 7.97 -3.65 29.13 -11.18 39.71 -14.08 5.07 -1.42 9.39 -2.68 9.61 -2.83 0.15 -0.22 -0.30 -4.99 -1.04 -10.66 -1.79 -13.93 -1.86 -31.07 -0.15 -34.28 2.16 -3.80 4.77 -5.44 9.02 -5.44 5.66 0 7.97 1.86 12 9.61 2.76 5.36 8.49 21.16 12.07 33.31 l0.67 2.31 8.94 -1.71 c4.92 -0.97 11.55 -1.71 14.68 -1.71 5.07 -0.07 5.96 0.15 7.97 1.79 3.80 3.28 4.55 8.49 1.79 12.74 -1.27 2.01 -7.38 5.22 -16.62 8.87 -5.81 2.24 -11.55 4.62 -12.44 5.22 -0.37 0.22 1.27 32.93 2.53 48.43 1.19 16.09 1.19 16.54 -0.22 19.37 -2.38 4.84 -7 7 -12 5.51z"/>
 </g>
</svg>